<?xml version="1.0" standalone="no"?>
<!DOCTYPE svg PUBLIC "-//W3C//DTD SVG 20010904//EN"
 "http://www.w3.org/TR/2001/REC-SVG-20010904/DTD/svg10.dtd">
<svg version="1.0" xmlns="http://www.w3.org/2000/svg"
 width="1024.000000pt" height="1024.000000pt" viewBox="0 0 1024.000000 1024.000000"
 preserveAspectRatio="xMidYMid meet">
<metadata>
Created by potrace 1.14, written by Peter Selinger 2001-2017
</metadata>
<g transform="translate(0.000000,1024.000000) scale(0.100000,-0.100000)"
fill="#000000" stroke="none">
<path d="M4960 7824 c-39 -16 -735 -285 -890 -344 l-175 -67 -6 101 c-3 55
-11 112 -19 126 -73 138 -234 198 -365 136 -52 -24 -101 -72 -132 -129 -16
-28 -18 -65 -21 -273 l-3 -241 -27 -13 c-15 -6 -97 -38 -182 -70 -85 -32 -252
-95 -370 -139 -334 -125 -446 -168 -479 -185 -42 -22 -61 -54 -61 -104 0 -37
6 -50 35 -79 l35 -35 0 -112 c0 -102 -2 -115 -21 -132 -77 -70 -77 -201 0
-273 l30 -28 -25 -49 c-18 -37 -29 -89 -44 -208 -11 -88 -29 -222 -40 -299
-23 -161 -21 -168 48 -200 39 -18 65 -22 157 -22 97 0 116 3 160 25 42 21 50
30 53 56 2 17 -15 159 -38 315 -31 218 -46 295 -64 331 l-23 47 30 28 c34 32
66 97 67 133 0 45 -21 100 -51 134 -27 31 -29 39 -29 116 0 61 3 81 13 78 6
-3 49 -17 95 -32 l82 -28 0 -919 0 -920 -62 7 c-35 4 -95 8 -134 8 -62 0 -78
-3 -120 -30 -30 -18 -60 -48 -79 -79 l-30 -49 1 -175 c2 -269 52 -1105 70
-1169 34 -118 104 -158 354 -202 690 -121 1160 -273 2023 -651 332 -146 295
-146 617 -4 462 203 785 331 1056 418 272 88 732 201 979 242 163 26 210 43
264 91 85 76 74 -9 126 974 24 444 24 446 -8 508 -31 59 -89 106 -151 123 -28
8 -73 8 -146 2 -58 -5 -106 -9 -107 -8 -6 3 -7 1834 -2 1839 3 4 95 37 204 75
165 57 204 74 227 100 31 35 34 57 14 105 -22 53 -10 48 -606 274 -129 50
-290 109 -357 133 l-121 44 -4 235 c-3 214 -5 239 -25 282 -95 208 -393 211
-484 6 -16 -39 -24 -78 -27 -145 -2 -51 -8 -90 -13 -88 -4 3 -138 55 -296 116
-158 61 -394 151 -523 201 -189 73 -248 91 -300 94 -36 2 -72 1 -80 -2z
m-1293 -288 l28 -24 3 -336 c2 -185 0 -336 -3 -336 -3 0 -18 14 -33 31 -31 35
-57 34 -92 -4 -20 -21 -20 -19 -20 312 l0 332 25 24 c30 31 56 32 92 1z m2810
0 l28 -24 2 -339 c2 -253 0 -333 -8 -318 -25 45 -83 61 -109 30 -7 -8 -15 -15
-19 -15 -8 0 -6 620 3 646 6 20 38 42 63 43 7 1 25 -10 40 -23z m-1192 -80
c674 -257 890 -344 881 -354 -3 -3 -74 -29 -158 -57 -84 -29 -292 -102 -463
-163 -170 -60 -356 -125 -413 -143 l-102 -33 -108 36 c-59 20 -294 103 -522
183 -228 81 -437 155 -465 164 -61 22 -75 14 205 121 118 45 346 133 505 195
357 138 342 133 385 134 21 1 121 -32 255 -83z m1560 -673 c162 -57 204 -79
215 -109 6 -15 9 -87 8 -163 l-3 -136 -2042 -3 -2043 -2 0 144 c0 79 3 152 6
161 4 8 19 22 35 31 33 17 309 114 324 114 6 0 11 -25 12 -56 4 -114 82 -214
191 -245 56 -15 148 -7 199 20 76 38 133 134 133 223 0 24 5 38 13 38 15 0
168 -52 706 -239 223 -78 417 -141 432 -141 15 0 251 77 525 171 275 94 525
179 557 189 l57 18 4 -22 c3 -11 8 -39 11 -61 9 -51 25 -82 67 -124 74 -76
203 -103 293 -62 90 41 155 143 155 244 0 68 -16 67 145 10z m-807 -693 l1032
0 -2 -787 -3 -788 -125 -22 c-69 -11 -126 -20 -127 -20 -1 1 6 81 15 177 8 96
12 187 9 202 -4 15 -19 35 -33 45 -24 15 -29 15 -72 1 -65 -22 -607 -269 -716
-326 -118 -62 -201 -142 -250 -243 -20 -41 -40 -97 -44 -124 -6 -39 -13 -52
-32 -62 -14 -7 -95 -46 -180 -86 -172 -81 -279 -145 -400 -237 l-80 -61 -62
49 c-155 122 -423 273 -638 361 l-140 58 37 29 37 30 -2 132 c-1 84 -6 139
-14 152 -22 35 -62 43 -176 36 -148 -9 -152 -13 -152 -163 0 -76 -4 -113 -11
-113 -6 0 -77 18 -158 40 -178 48 -332 80 -556 115 -93 14 -180 28 -192 31
l-23 4 0 785 0 785 753 3 c413 2 869 2 1012 0 143 -1 725 -3 1293 -3z m563
-1499 c-6 -10 -7 -22 -3 -26 4 -3 2 -5 -5 -3 -6 2 -86 -98 -178 -222 -193
-260 -277 -370 -285 -370 -3 0 -29 22 -58 50 -31 29 -68 54 -93 61 l-41 13 5
52 c9 91 61 162 161 220 65 39 486 244 499 244 4 0 3 -8 -2 -19z m-3739 -331
c877 -100 1607 -377 2052 -777 39 -36 81 -68 94 -74 27 -10 59 4 107 46 91 80
227 184 308 235 125 78 326 190 342 190 8 0 24 -16 36 -37 l23 -36 -150 -148
c-82 -81 -160 -159 -174 -174 -14 -14 -66 -53 -115 -85 -50 -32 -150 -113
-223 -180 l-132 -122 -82 77 c-169 159 -503 379 -576 379 -64 0 -104 -78 -67
-130 8 -12 72 -60 142 -107 159 -106 306 -224 445 -355 59 -56 116 -102 125
-102 38 1 77 30 220 162 194 180 268 237 361 283 67 32 98 58 237 196 l160
158 78 -24 c165 -53 331 -18 464 96 95 82 158 192 199 350 15 57 29 106 30
108 11 14 466 77 625 87 157 9 154 12 140 -168 -17 -197 -41 -582 -48 -750
l-6 -146 -75 -11 c-41 -6 -77 -9 -79 -7 -3 3 1 164 9 358 7 194 12 368 10 386
-6 65 -101 91 -168 47 -43 -28 -52 -69 -64 -286 -24 -456 -24 -454 -50 -492
-31 -45 -49 -53 -184 -82 -77 -16 -113 -20 -118 -12 -5 8 -13 7 -30 -1 l-23
-12 25 5 c20 5 22 4 8 -5 -9 -5 -23 -7 -32 -4 -19 7 -22 25 -4 21 16 -3 23 42
9 56 -18 18 -13 25 32 36 257 61 287 77 287 151 0 30 -6 43 -31 64 -17 14 -39
26 -50 26 -35 0 -443 -108 -590 -156 -439 -142 -706 -264 -984 -447 -87 -57
-310 -232 -336 -263 -11 -13 -19 -8 -63 34 -273 263 -693 492 -1220 663 -203
66 -624 171 -655 164 -38 -8 -61 -34 -68 -79 -9 -56 18 -77 147 -116 60 -18
109 -36 108 -39 -3 -28 4 -51 16 -51 8 0 18 -9 21 -21 5 -16 14 -20 43 -19 63
3 72 1 72 -19 0 -12 11 -23 28 -29 48 -18 0 -13 -96 10 -68 16 -88 24 -75 30
12 6 7 7 -15 3 -46 -7 -228 34 -259 58 -14 11 -32 36 -40 55 -16 38 -29 211
-39 492 -7 200 -13 223 -66 263 -19 14 -42 20 -75 19 -39 0 -52 -5 -72 -28
-23 -28 -23 -30 -17 -179 3 -82 9 -253 12 -379 6 -206 5 -229 -9 -223 -9 3
-42 9 -75 13 l-60 6 -6 107 c-11 182 -37 559 -50 736 -13 167 -13 187 7 213
14 18 124 15 329 -8z m500 -1069 c5 -4 -8 -5 -27 -3 -19 2 -35 9 -35 14 0 11
49 2 62 -11z m25 -23 c-3 -8 -6 -5 -6 6 -1 11 2 17 5 13 3 -3 4 -12 1 -19z
m3313 7 c9 -10 9 -15 1 -15 -6 0 -11 5 -11 10 0 6 -5 10 -11 10 -5 0 -8 -4 -5
-9 3 -4 -12 -8 -34 -8 -49 0 -50 3 -7 16 46 13 53 13 67 -4z m-3266 -4 c4 -5
-3 -7 -14 -4 -23 6 -26 13 -6 13 8 0 17 -4 20 -9z m145 -41 c19 -5 37 -14 41
-21 4 -6 12 -9 17 -6 5 3 27 0 48 -7 31 -11 35 -15 19 -19 -10 -4 -3 -4 16 -2
40 5 70 -7 49 -21 -7 -4 -14 -3 -17 4 -5 16 -19 15 -25 -1 -4 -10 7 -13 42
-11 56 3 84 -4 75 -18 -5 -7 -1 -9 9 -5 23 9 237 -72 237 -89 0 -3 -4 -2 -10
1 -5 3 -10 1 -10 -5 0 -7 8 -9 20 -5 22 7 152 -53 144 -67 -3 -4 3 -5 12 -1
13 5 15 3 9 -7 -5 -8 -4 -11 2 -7 15 9 103 -42 103 -59 0 -8 5 -14 11 -14 5 0
7 5 3 12 -5 7 -3 8 5 3 8 -4 9 -11 3 -17 -5 -5 -72 16 -173 55 -90 35 -209 79
-264 98 -55 18 -101 37 -103 41 -2 4 -9 5 -16 2 -7 -3 -18 5 -25 18 -6 13 -9
15 -7 6 5 -18 -5 -24 -18 -11 -3 4 -14 8 -24 9 -43 7 -103 28 -113 40 -6 8
-17 14 -23 14 -6 0 -4 -5 4 -11 11 -7 6 -8 -20 -3 -46 9 -109 32 -90 33 13 1
13 2 0 11 -12 8 -11 10 7 10 12 0 24 6 26 13 4 8 8 9 14 2 4 -6 20 -16 36 -22
24 -11 27 -10 27 6 0 19 -21 32 -85 52 -22 7 -44 17 -49 21 -5 4 6 3 25 -3 19
-6 49 -14 68 -19z m2991 20 c-12 -8 -9 -10 13 -10 15 0 27 -4 27 -8 0 -5 -27
-9 -59 -8 -58 1 -71 9 -31 19 11 3 20 1 20 -4 0 -5 5 -9 10 -9 6 0 9 3 9 8 -3
15 1 22 14 22 8 0 7 -4 -3 -10z m-145 -59 c-3 -6 -11 -11 -17 -11 -6 0 -6 6 2
15 14 17 26 13 15 -4z m-90 -31 c-34 -23 -48 -25 -43 -8 3 7 15 15 29 19 42
12 45 9 14 -11z m322 14 c-3 -3 -12 -4 -19 -1 -8 3 -5 6 6 6 11 1 17 -2 13 -5z
m-388 -33 c11 -7 10 -11 -7 -20 -11 -6 -31 -11 -44 -10 -23 1 -23 1 2 9 14 4
18 9 10 9 -13 1 -13 2 0 11 18 12 21 12 39 1z m68 -33 c-3 -7 -5 -2 -5 12 0
14 2 19 5 13 2 -7 2 -19 0 -25z m123 17 c0 -2 -18 -9 -41 -15 -22 -6 -47 -14
-55 -17 -10 -4 -12 0 -8 10 3 10 22 17 47 20 23 2 45 4 50 5 4 1 7 0 7 -3z
m-310 -27 c-25 -11 -46 -24 -48 -29 -2 -5 -17 -9 -33 -9 -18 0 -28 -4 -24 -10
9 -14 -24 -25 -36 -13 -7 7 0 14 20 23 17 6 33 11 37 10 4 -1 10 2 13 7 7 11
80 41 101 42 8 0 -5 -9 -30 -21z m165 -8 c13 -6 15 -9 5 -9 -8 0 -22 4 -30 9
-18 12 -2 12 25 0z m-55 -19 c0 -12 -39 -25 -47 -17 -4 3 1 6 10 6 10 0 17 5
17 10 0 6 5 10 10 10 6 0 10 -4 10 -9z m-314 -66 c-10 -8 -22 -12 -27 -10 -4
3 -15 -12 -25 -34 -13 -29 -25 -41 -52 -49 -20 -6 -38 -9 -41 -7 -2 3 1 5 8 5
7 0 10 4 7 8 -3 5 2 19 10 31 11 15 22 20 37 16 17 -5 19 -4 7 4 -12 8 -5 14
30 30 52 24 73 27 46 6z m174 11 c0 -7 -40 -14 -44 -7 -3 4 6 8 20 9 13 1 24
0 24 -2z m-160 -51 c0 -8 -3 -15 -6 -15 -3 0 -12 7 -20 15 -14 13 -13 15 5 15
12 0 21 -6 21 -15z m-156 -23 c-6 -4 -14 -16 -18 -26 -5 -15 -9 -17 -19 -7 -9
10 -8 15 7 27 11 8 25 14 30 14 8 0 8 -3 0 -8z m-44 -45 c7 -10 9 -17 4 -16
-5 2 -26 -6 -47 -16 -30 -15 -40 -16 -50 -6 -6 7 -7 12 -2 11 6 -2 15 -1 20 0
6 1 17 3 25 4 8 0 15 6 15 11 0 11 16 38 19 33 1 -2 8 -11 16 -21z m-1325 -56
c-3 -2 -11 1 -18 7 -8 7 -18 8 -22 4 -5 -4 -5 -1 -1 5 5 10 11 10 26 1 11 -7
17 -14 15 -17z"/>
<path d="M4969 7327 c-90 -34 -143 -109 -143 -202 0 -97 82 -189 182 -202 126
-17 246 103 229 229 -17 125 -157 216 -268 175z"/>
<path d="M3323 5813 c-13 -2 -32 -16 -44 -31 -19 -25 -21 -37 -17 -150 3 -121
4 -124 31 -148 26 -22 37 -24 131 -24 118 0 159 11 175 46 6 14 11 76 11 144
0 127 -5 141 -57 161 -24 9 -187 10 -230 2z"/>
<path d="M3991 5811 c-65 -11 -71 -25 -71 -172 0 -174 0 -174 152 -174 131 1
163 7 179 36 7 13 10 70 10 148 -2 163 -4 165 -134 168 -50 1 -112 -2 -136 -6z"/>
<path d="M4615 5808 c-41 -22 -45 -38 -45 -169 0 -178 -3 -175 172 -171 173 4
168 -1 168 167 0 68 -3 131 -6 140 -13 32 -59 45 -166 45 -57 0 -112 -6 -123
-12z"/>
<path d="M5271 5809 c-45 -18 -50 -36 -51 -169 0 -175 -5 -170 161 -170 72 0
139 4 149 10 28 15 40 64 40 160 0 159 -21 180 -177 179 -54 0 -109 -5 -122
-10z"/>
<path d="M5915 5809 c-41 -23 -45 -39 -45 -165 0 -108 2 -124 21 -148 20 -26
22 -26 154 -26 171 0 165 -6 165 171 0 174 1 173 -157 177 -75 1 -125 -2 -138
-9z"/>
<path d="M3293 5186 l-28 -24 0 -130 c0 -177 -5 -172 171 -172 131 0 133 0
153 26 19 24 21 40 21 148 -1 168 -9 176 -179 176 -102 0 -112 -2 -138 -24z"/>
<path d="M3946 5189 c-26 -20 -26 -21 -26 -159 0 -176 -6 -170 170 -170 172 0
170 -2 170 178 l0 132 -32 20 c-28 17 -51 20 -144 20 -97 0 -115 -3 -138 -21z"/>
<path d="M4596 5189 l-27 -22 3 -139 c4 -176 -4 -168 170 -168 172 0 168 -4
168 170 0 126 -1 132 -25 155 -23 24 -30 25 -143 25 -107 0 -122 -2 -146 -21z"/>
<path d="M5265 5198 c-41 -22 -45 -38 -45 -168 0 -176 -5 -170 164 -170 184 0
181 -2 181 160 0 67 -3 130 -7 140 -13 36 -60 50 -170 50 -57 0 -112 -6 -123
-12z"/>
<path d="M5924 5200 c-45 -18 -54 -47 -54 -171 0 -103 2 -119 21 -143 20 -26
22 -26 153 -26 173 0 166 -8 166 173 0 135 0 136 -26 156 -23 18 -40 21 -133
20 -58 0 -116 -4 -127 -9z"/>
<path d="M4611 4596 c-32 -14 -41 -52 -41 -177 0 -114 1 -121 25 -144 23 -24
30 -25 148 -25 168 0 167 -1 167 176 0 173 1 172 -162 176 -65 2 -126 -1 -137
-6z"/>
<path d="M5242 4577 c-20 -21 -22 -34 -22 -149 0 -112 2 -128 21 -152 20 -26
22 -26 150 -26 174 0 169 -5 169 175 0 180 5 175 -168 175 -121 0 -130 -1
-150 -23z"/>
<path d="M6738 3193 c7 -3 16 -2 19 1 4 3 -2 6 -13 5 -11 0 -14 -3 -6 -6z"/>
<path d="M6798 3193 c7 -3 16 -2 19 1 4 3 -2 6 -13 5 -11 0 -14 -3 -6 -6z"/>
<path d="M6795 3148 c12 -38 20 -39 27 -3 2 12 -3 21 -15 23 -16 3 -18 0 -12
-20z"/>
<path d="M3210 3152 c0 -5 7 -13 16 -16 10 -4 14 -1 12 6 -5 15 -28 23 -28 10z"/>
<path d="M6751 3144 c0 -11 3 -14 6 -6 3 7 2 16 -1 19 -3 4 -6 -2 -5 -13z"/>
<path d="M3350 3100 c20 -13 70 -13 70 0 0 6 -19 10 -42 10 -32 0 -39 -3 -28
-10z"/>
<path d="M3712 3018 c3 -7 14 -14 26 -14 18 -1 20 2 11 12 -14 17 -42 18 -37
2z"/>
<path d="M3966 2972 c-3 -5 1 -9 9 -9 8 0 15 4 15 9 0 4 -4 8 -9 8 -6 0 -12
-4 -15 -8z"/>
<path d="M4120 2900 c0 -13 18 -22 24 -11 3 5 -1 11 -9 15 -8 3 -15 1 -15 -4z"/>
<path d="M5836 2835 c4 -8 7 -15 9 -15 2 0 5 7 9 15 3 9 0 15 -9 15 -9 0 -12
-6 -9 -15z"/>
</g>
</svg>
